<?xml version="1.0" encoding="UTF-8"?>
<svg width="32" height="32" viewBox="0 0 24 24" xmlns="http://www.w3.org/2000/svg">
    <style>
        path { fill: #000000; }
        @media (prefers-color-scheme: dark) {
            path { fill: #ffffff; }
        }
    </style>
    <!-- Soccer ball -->
    <g transform="translate(15, 15) scale(0.1)">
        <path d="M22.57,2.648c-4.489,1.82-8.517,4.496-11.971,7.949C7.144,14.051,4.471,18.08,2.65,22.568C0.892,26.904,0,31.486,0,36.186c0,4.699,0.892,9.281,2.65,13.615c1.821,4.489,4.495,8.518,7.949,11.971c3.454,3.455,7.481,6.129,11.971,7.949c4.336,1.76,8.917,2.649,13.617,2.649c4.7,0,9.28-0.892,13.616-2.649c4.488-1.82,8.518-4.494,11.971-7.949c3.455-3.453,6.129-7.48,7.949-11.971c1.758-4.334,2.648-8.916,2.648-13.615c0-4.7-0.891-9.282-2.648-13.618c-1.82-4.488-4.496-8.518-7.949-11.971s-7.479-6.129-11.971-7.949C45.467,0.891,40.887,0,36.187,0C31.487,0,26.906,0.891,22.57,2.648z M9.044,51.419c-1.743-1.094-3.349-2.354-4.771-3.838c-2.172-6.112-2.54-12.729-1.101-19.01c0.677-1.335,1.447-2.617,2.318-3.845c0.269-0.379,0.518-0.774,0.806-1.142l8.166,4.832c0,0.064,0,0.134,0,0.205c-0.021,4.392,0.425,8.752,1.313,13.049c0.003,0.02,0.006,0.031,0.01,0.049l-6.333,9.93C9.314,51.579,9.177,51.503,9.044,51.419z" />
    </g>

    <!-- Octocat body -->
    <g transform="translate(0, 0) scale(0.045)">
        <path d="M6.962,266.753c22.59-5.641,53.305-13.324,107.118-14.753c-1.487-2.974-2.83-6.053-4.019-9.228c-20.94-0.182-85.43,2.792-107.521,8.25c-0.125,0.039-0.259,0.048-0.393,0.048c-0.739,0-1.42-0.508-1.602-1.256c-0.211-0.873,0.326-1.774,1.208-1.995c21.89-5.41,84.825-8.413,107.118-8.355c-5.017-14.753-7.233-31.655-7.233-50.523c0-33.516,10.437-46.159,24.46-64.02c-10.724-38.197,3.847-64.307,3.847-64.307s22.533-4.671,65.132,25.832c23.089-9.89,84.647-10.714,113.77-2.196c17.88-11.818,50.571-28.585,63.77-23.895c3.568,5.755,11.262,22.513,4.662,59.348c4.489,8.077,27.761,25.286,27.856,73.928c-0.384,17.938-2.245,33.084-5.698,45.899c55.54-0.47,88.212,4.115,110.715,8.259" />
    </g>
</svg> 