<?xml version="1.0" encoding="UTF-8"?>
<svg width="24" height="24" viewBox="0 0 24 24" xmlns="http://www.w3.org/2000/svg">
    <!-- Soccer ball -->
    <g transform="translate(15, 15) scale(0.1)">
        <path
            d="M22.57,2.648c-4.489,1.82-8.517,4.496-11.971,7.949C7.144,14.051,4.471,18.08,2.65,22.568C0.892,26.904,0,31.486,0,36.186c0,4.699,0.892,9.281,2.65,13.615c1.821,4.489,4.495,8.518,7.949,11.971c3.454,3.455,7.481,6.129,11.971,7.949c4.336,1.76,8.917,2.649,13.617,2.649c4.7,0,9.28-0.892,13.616-2.649c4.488-1.82,8.518-4.494,11.971-7.949c3.455-3.453,6.129-7.48,7.949-11.971c1.758-4.334,2.648-8.916,2.648-13.615c0-4.7-0.891-9.282-2.648-13.618c-1.82-4.488-4.496-8.518-7.949-11.971s-7.479-6.129-11.971-7.949C45.467,0.891,40.887,0,36.187,0C31.487,0,26.906,0.891,22.57,2.648z M9.044,51.419c-1.743-1.094-3.349-2.354-4.771-3.838c-2.172-6.112-2.54-12.729-1.101-19.01c0.677-1.335,1.447-2.617,2.318-3.845c0.269-0.379,0.518-0.774,0.806-1.142l8.166,4.832c0,0.064,0,0.134,0,0.205c-0.021,4.392,0.425,8.752,1.313,13.049c0.003,0.02,0.006,0.031,0.01,0.049l-6.333,9.93C9.314,51.579,9.177,51.503,9.044,51.419zM33.324,68.206c1.409,0.719,2.858,1.326,4.347,1.82c-6.325,0.275-12.713-1.207-18.36-4.447L33,68.018C33.105,68.085,33.212,68.149,33.324,68.206z M33.274,65.735L17.12,62.856c-1.89-2.295-3.59-4.723-5.051-7.318c-0.372-0.66-0.787-1.301-1.102-1.99l6.327-9.92c0.14,0.035,0.296,0.072,0.473,0.119c3.958,1.059,7.986,1.812,12.042,2.402c0.237,0.033,0.435,0.062,0.604,0.08l7.584,13.113c-1.316,1.85-2.647,3.69-4.007,5.51C33.764,65.155,33.524,65.446,33.274,65.735zM60.15,60.149c-1.286,1.287-2.651,2.447-4.08,3.481c-0.237-1.894-0.646-3.75-1.223-5.563l8.092-15.096c2.229-1.015,4.379-2.166,6.375-3.593c0.261-0.185,0.478-0.392,0.646-0.618C69.374,46.561,66.104,54.196,60.15,60.149zM59.791,40.571c0.301,0.574,0.598,1.154,0.896,1.742l-7.816,14.58c-0.045,0.01-0.088,0.02-0.133,0.026c-4.225,0.789-8.484,1.209-12.779,1.229l-7.8-13.487c1.214-2.254,2.417-4.517,3.61-6.781c0.81-1.536,1.606-3.082,2.401-4.627l16.143-1.658C56.29,34.495,58.163,37.457,59.791,40.571z M56.516,23.277c-0.766,2.023-1.586,4.025-2.401,6.031l-15.726,1.615c-0.188-0.248-0.383-0.492-0.588-0.725c-1.857-2.103-3.726-4.193-5.592-6.289c0.017-0.021,0.034-0.037,0.051-0.056c-0.753-0.752-1.508-1.504-2.261-2.258l4.378-13.181c0.302-0.08,0.606-0.147,0.913-0.18c2.38-0.242,4.763-0.516,7.149-0.654c1.461-0.082,2.93-0.129,4.416-0.024l10.832,12.209C57.314,20.943,56.95,22.124,56.516,23.277z M60.15,12.221c2.988,2.99,5.302,6.402,6.938,10.047c-2.024-1.393-4.188-2.539-6.463-3.473c-0.354-0.146-0.717-0.275-1.086-0.402L48.877,6.376c0.074-0.519,0.113-1.039,0.129-1.563C53.062,6.464,56.864,8.936,60.15,12.221z M25.334,4.182c0.042,0.031,0.062,0.057,0.086,0.064c2.437,0.842,4.654,2.082,6.744,3.553l-4.09,12.317c-0.021,0.006-0.041,0.012-0.061,0.021c-0.837,0.346-1.69,0.656-2.514,1.031c-3.395,1.543-6.705,3.252-9.823,5.301l-8.071-4.775c0.012-0.252,0.055-0.508,0.141-0.736c0.542-1.444,1.075-2.896,1.688-4.311c0.472-1.09,1.01-2.143,1.597-3.172c0.384-0.424,0.782-0.844,1.192-1.254c3.833-3.832,8.363-6.553,13.186-8.162C25.384,4.098,25.358,4.139,25.334,4.182z"
            fill="black" />
    </g>

    <!-- Octocat body -->
    <g transform="translate(0, 0) scale(0.045)">
        <path 
            d="M6.962,266.753c22.59-5.641,53.305-13.324,107.118-14.753c-1.487-2.974-2.83-6.053-4.019-9.228c-20.94-0.182-85.43,2.792-107.521,8.25c-0.125,0.039-0.259,0.048-0.393,0.048c-0.739,0-1.42-0.508-1.602-1.256c-0.211-0.873,0.326-1.774,1.208-1.995c21.89-5.41,84.825-8.413,107.118-8.355c-5.017-14.753-7.233-31.655-7.233-50.523c0-33.516,10.437-46.159,24.46-64.02c-10.724-38.197,3.847-64.307,3.847-64.307s22.533-4.671,65.132,25.832c23.089-9.89,84.647-10.714,113.77-2.196c17.88-11.818,50.571-28.585,63.77-23.895c3.568,5.755,11.262,22.513,4.662,59.348c4.489,8.077,27.761,25.286,27.856,73.928c-0.384,17.938-2.245,33.084-5.698,45.899c55.54-0.47,88.212,4.115,110.715,8.259c0.883,0.182,1.478,1.036,1.324,1.928c-0.153,0.787-0.844,1.353-1.611,1.353c-0.115,0-0.211-0.009-0.326-0.019c-22.466-4.163-55.194-8.729-111.061-8.221c-0.979,3.252-2.072,6.341-3.262,9.286c19.013,0.633,71.233,2.667,113.823,15.693c0.883,0.269,1.362,1.189,1.094,2.072c-0.211,0.7-0.863,1.16-1.573,1.16c-0.153,0-0.326-0.019-0.479-0.076c-43.185-13.199-96.538-15.012-114.283-15.598c-15.444,33.929-47.118,46.59-98.322,51.856c16.595,10.446,21.353,23.548,21.353,59.003c0,35.453-0.479,40.211-0.364,48.363c0.173,13.383,19.779,19.789,19.051,24.096c-0.729,4.299-16.403,3.607-23.731,1.047c-20.758-7.232-18.687-24.5-18.687-24.5l-0.69-47.404c0,0,1.42-25.516-8-25.516c0,5.131,0,59.242,0,77.592c0,16.863,11.799,21.986,11.799,28.221c0,10.715-21.563-1.016-28.202-7.703c-10.134-10.168-8.982-31.73-8.733-48.785c0.23-16.471-0.153-52.49-0.153-52.49l-6.877,0.145c0,0,2.82,78.686-3.626,93.025c-8.335,18.408-33.477,24.74-33.477,16.355c0-5.641,6.196-3.846,9.621-16.488c2.925-10.754,1.928-90.975,1.928-90.975s-8.057,4.768-8.057,19.789c0,6.877-0.192,46.158-0.192,57.852c0,14.705-20.883,23.078-30.917,23.078c-5.084,0-11.405-0.248-11.405-2.943c0-6.801,19.099-10.793,19.099-24.941c0-12.268-0.269-43.826-0.269-43.826s-9.631,1.648-23.367,1.648c-34.628,0-45.583-22.1-50.792-34.465c-6.782-16.105-15.578-23.673-24.921-29.717c-5.736-3.712-7.06-8.096-0.422-9.343c30.657-5.774,38.494,34.763,58.964,41.218c14.609,4.615,33.391,2.619,42.734-3.424c1.238-12.385,10.159-23.089,17.593-28.729c-52.067-4.998-82.936-23.079-98.936-52.145c-54.466,1.305-85.372,9.036-108.029,14.695c-1.65,0.413-3.261,0.815-4.815,1.209c-0.134,0.028-0.269,0.038-0.403,0.038c-0.739,0-1.41-0.499-1.602-1.247c-0.221-0.882,0.326-1.784,1.209-2.005C3.72,267.567,5.322,267.175,6.962,266.753z"
            fill="black" />
    </g>
</svg> 